<svg width="25" height="17" viewBox="0 0 25 17" fill="none" xmlns="http://www.w3.org/2000/svg">
<path d="M10.0694 7.57144C11.4497 6.86016 12.1701 5.78387 12.1701 4.10861C12.1701 0.804875 9.88715 0 7.2526 0H0V16.5842H7.4566C10.2517 16.5842 12.8776 15.1382 12.8776 11.769C12.8776 9.68658 11.9618 8.14702 10.0694 7.57144ZM3.38108 2.8311H6.55382C7.77344 2.8311 8.87153 3.20078 8.87153 4.7263C8.87153 6.13484 8.01649 6.70106 6.8099 6.70106H3.38108V2.8311ZM6.99653 13.7671H3.38108V9.19991H7.06597C8.55469 9.19991 9.49653 9.86908 9.49653 11.5677C9.49653 13.243 8.3724 13.7671 6.99653 13.7671ZM22.5564 2.50354H16.3194V0.870389H22.5564V2.50354ZM25 10.7535C25 7.20176 23.0729 4.23963 19.579 4.23963C16.1849 4.23963 13.8802 6.99119 13.8802 10.5944C13.8802 14.3333 16.0634 16.8977 19.579 16.8977C22.2396 16.8977 23.9627 15.6062 24.7917 12.8593H22.092C21.8012 13.8841 20.6033 14.4269 19.6745 14.4269C17.8819 14.4269 16.9401 13.2945 16.9401 11.3712H24.974C24.987 11.1747 25 10.9641 25 10.7535ZM16.9444 9.2935C17.0443 7.71651 18.0165 6.72913 19.4835 6.72913C21.02 6.72913 21.7925 7.70247 21.9227 9.2935H16.9444Z" fill="#F4F4F4"/>
</svg>
