<svg width="24" height="26" viewBox="0 0 24 26" fill="none" xmlns="http://www.w3.org/2000/svg">
<path d="M12.0027 6.17473C8.59743 6.17473 5.85075 9.07616 5.85075 12.6732C5.85075 16.2703 8.59743 19.1718 12.0027 19.1718C15.4079 19.1718 18.1546 16.2703 18.1546 12.6732C18.1546 9.07616 15.4079 6.17473 12.0027 6.17473ZM12.0027 16.8981C9.80212 16.8981 8.00312 15.0034 8.00312 12.6732C8.00312 10.3431 9.79677 8.44836 12.0027 8.44836C14.2086 8.44836 16.0022 10.3431 16.0022 12.6732C16.0022 15.0034 14.2032 16.8981 12.0027 16.8981ZM19.8412 5.9089C19.8412 6.75162 19.1987 7.42466 18.4062 7.42466C17.6085 7.42466 16.9713 6.74596 16.9713 5.9089C16.9713 5.07184 17.6138 4.39315 18.4062 4.39315C19.1987 4.39315 19.8412 5.07184 19.8412 5.9089ZM23.9157 7.44728C23.8247 5.41685 23.3856 3.6183 21.9775 2.13648C20.5747 0.654659 18.8721 0.190883 16.9499 0.0890789C14.9689 -0.029693 9.03112 -0.029693 7.05008 0.0890789C5.1333 0.185228 3.43068 0.649004 2.02253 2.13083C0.614389 3.61265 0.180703 5.41119 0.0843279 7.44163C-0.0281093 9.53428 -0.0281093 15.8066 0.0843279 17.8992C0.175349 19.9296 0.614389 21.7282 2.02253 23.21C3.43068 24.6918 5.12794 25.1556 7.05008 25.2574C9.03112 25.3762 14.9689 25.3762 16.9499 25.2574C18.8721 25.1613 20.5747 24.6975 21.9775 23.21C23.3803 21.7282 23.8193 19.9296 23.9157 17.8992C24.0281 15.8066 24.0281 9.53993 23.9157 7.44728ZM21.3564 20.1446C20.9388 21.2531 20.1303 22.1071 19.0755 22.5539C17.496 23.2157 13.7481 23.063 12.0027 23.063C10.2572 23.063 6.50396 23.21 4.92984 22.5539C3.88042 22.1128 3.07195 21.2588 2.64897 20.1446C2.02253 18.4761 2.16709 14.517 2.16709 12.6732C2.16709 10.8295 2.02789 6.86474 2.64897 5.20193C3.06659 4.09339 3.87507 3.23936 4.92984 2.79255C6.50931 2.13082 10.2572 2.28353 12.0027 2.28353C13.7481 2.28353 17.5014 2.13648 19.0755 2.79255C20.1249 3.23371 20.9334 4.08773 21.3564 5.20193C21.9828 6.87039 21.8383 10.8295 21.8383 12.6732C21.8383 14.517 21.9828 18.4818 21.3564 20.1446Z" fill="#F4F4F4"/>
</svg>
